<svg xmlns="http://www.w3.org/2000/svg" xmlns:xlink="http://www.w3.org/1999/xlink" version="1.1" id="Layer_1" x="0px" y="0px" width="100px" height="100px" viewBox="0 0 100 100" enable-background="new 0 0 100 100" xml:space="preserve">
<g>
	<path d="M28.025,67.057c0-2.271-2.698-4.068-6.025-4.068c-3.328,0-6.025,1.775-6.025,4.046c0,0.011,0.002-0.034,0.002-0.034H16v9   h12v-9h0.023C28.023,67,28.025,67.066,28.025,67.057z"/>
	<circle cx="22" cy="58.701" r="3.452"/>
</g>
<g>
	<path d="M84.025,35.057c0-2.271-2.697-4.068-6.025-4.068s-6.025,1.775-6.025,4.046c0,0.011,0.002-0.034,0.002-0.034H72v9h12v-9   h0.023C84.023,35,84.025,35.066,84.025,35.057z"/>
	<circle cx="78" cy="26.702" r="3.451"/>
</g>
<g>
	<path d="M27.025,35.057c0-2.271-2.697-4.068-6.025-4.068s-6.025,1.775-6.025,4.046c0,0.011,0.002-0.034,0.002-0.034H15v9h12v-9   h0.023C27.023,35,27.025,35.066,27.025,35.057z"/>
	<circle cx="21" cy="26.702" r="3.451"/>
</g>
<g>
	<path d="M83.025,67.057c0-2.271-2.697-4.068-6.025-4.068s-6.025,1.775-6.025,4.046c0,0.011,0.002-0.034,0.002-0.034H71v9h12v-9   h0.023C83.023,67,83.025,67.066,83.025,67.057z"/>
	<circle cx="77" cy="58.701" r="3.451"/>
</g>
<g>
	<path d="M56.025,83.057c0-2.271-2.697-4.068-6.025-4.068s-6.025,1.775-6.025,4.046c0,0.011,0.002-0.034,0.002-0.034H44v9h12v-9   h0.023C56.023,83,56.025,83.066,56.025,83.057z"/>
	<circle cx="50" cy="74.701" r="3.451"/>
</g>
<g>
	<path d="M56.025,19.057c0-2.271-2.697-4.068-6.025-4.068s-6.025,1.775-6.025,4.046c0,0.011,0.002-0.034,0.002-0.034H44v9h12v-9   h0.023C56.023,19,56.025,19.066,56.025,19.057z"/>
	<circle cx="50" cy="10.702" r="3.451"/>
</g>
<text transform="matrix(1 0 0 1 41.6577 58.002)" font-family="'ArialMT'" font-size="30">$</text>
</svg>