<svg xmlns="http://www.w3.org/2000/svg" xmlns:xlink="http://www.w3.org/1999/xlink" version="1.1" id="Layer_1" x="0px" y="0px" width="100px" height="99.988px" viewBox="0 0 100 99.988" enable-background="new 0 0 100 99.988" xml:space="preserve">
<path d="M38.086,76.213c-10.179,0-19.748-3.963-26.945-11.162C-3.714,50.193-3.714,26.017,11.143,11.162  C18.339,3.963,27.908,0,38.087,0c10.181,0,19.749,3.963,26.944,11.162c7.197,7.197,11.162,16.766,11.162,26.945  c0,10.177-3.965,19.748-11.162,26.943C57.835,72.249,48.266,76.213,38.086,76.213L38.086,76.213z M38.086,9.927  c-7.525,0-14.604,2.932-19.927,8.251c-5.323,5.324-8.255,12.399-8.255,19.928c0,7.527,2.932,14.605,8.254,19.929  c5.322,5.321,12.4,8.252,19.927,8.252c7.529,0,14.604-2.931,19.927-8.252C69,47.046,69,29.167,58.012,18.179  C52.691,12.857,45.614,9.927,38.086,9.927L38.086,9.927z"/>
<path d="M74.751,66.826c0,0-0.724-0.726-1.61-1.611s-2.514-0.709-3.615,0.393l-3.733,3.732c-1.104,1.104-1.28,2.73-0.395,3.616  c0.887,0.887,1.611,1.612,1.611,1.612L74.751,66.826z"/>
<path d="M70.263,77.822c0,0,0.902,0.901,2.005,2.004L89.82,97.379c1.104,1.103,2.907,1.103,4.01,0l3.732-3.731  c1.104-1.104,1.104-2.907,0-4.011L80.011,72.084c-1.104-1.104-2.006-2.004-2.006-2.004L70.263,77.822z"/>
</svg>