<svg xmlns:dc="http://purl.org/dc/elements/1.1/" xmlns:cc="http://creativecommons.org/ns#" xmlns:rdf="http://www.w3.org/1999/02/22-rdf-syntax-ns#" xmlns:svg="http://www.w3.org/2000/svg" xmlns="http://www.w3.org/2000/svg" xmlns:sodipodi="http://sodipodi.sourceforge.net/DTD/sodipodi-0.dtd" xmlns:inkscape="http://www.inkscape.org/namespaces/inkscape" width="100px" height="64.970257766px" viewBox="0 0 1513 983" version="1.1" id="svg2" inkscape:version="0.48.2 r9819" sodipodi:docname="united states.svg">
  <metadata id="metadata12">
    <rdf:RDF>
      <cc:Work rdf:about="">
        <dc:format>image/svg+xml</dc:format>
        <dc:type rdf:resource="http://purl.org/dc/dcmitype/StillImage"/>
      </cc:Work>
    </rdf:RDF>
  </metadata>
  <defs id="defs10"/>
  <sodipodi:namedview pagecolor="#ffffff" bordercolor="#666666" borderopacity="1" objecttolerance="10" gridtolerance="10" guidetolerance="10" inkscape:pageopacity="0" inkscape:pageshadow="2" inkscape:window-width="640" inkscape:window-height="480" id="namedview8" showgrid="false" inkscape:zoom="0.15439524" inkscape:cx="945.625" inkscape:cy="614.375" inkscape:window-x="0" inkscape:window-y="0" inkscape:window-maximized="0" inkscape:current-layer="svg2"/>
  <path fill="#000000" stroke="#000000" stroke-width="0.09375" opacity="1.00" d=" M 149.6 38.0 C 160.9 41.3 171.8 46.0 183.4 47.8 C 200.5 52.6 217.8 57.1 235.0 61.4 C 252.5 66.5 270.3 70.0 287.9 74.0 C 306.4 77.6 324.5 82.9 343.3 84.9 C 353.5 87.5 363.8 89.4 374.2 91.1 C 389.0 95.0 404.5 95.0 419.5 98.5 C 437.3 103.1 456.0 103.2 473.9 107.1 C 509.2 110.5 544.3 116.7 579.7 118.4 C 593.6 120.6 607.8 121.2 621.9 121.3 C 639.3 121.4 656.6 125.3 674.1 125.1 C 714.3 125.7 754.6 126.5 794.9 127.0 C 794.9 122.4 795.0 117.8 795.0 113.2 C 797.8 114.2 801.8 113.7 803.6 116.3 C 805.4 122.6 803.7 130.4 808.4 135.7 C 814.5 137.6 821.0 138.2 827.4 139.5 C 827.8 140.8 828.3 142.1 828.8 143.4 C 834.2 143.7 837.6 138.5 842.8 138.5 C 852.5 140.5 860.2 150.2 870.9 147.6 C 870.7 148.5 870.5 149.3 870.3 150.1 C 876.3 151.7 880.8 157.8 887.5 156.5 C 891.4 154.3 895.1 151.6 899.2 149.7 C 900.8 151.5 901.6 155.3 904.6 155.1 C 909.5 154.9 914.3 154.2 919.2 153.9 C 919.3 154.9 919.5 156.0 919.6 157.1 C 924.2 157.1 928.8 156.7 933.3 156.2 C 928.1 159.4 923.4 163.4 917.6 165.5 C 910.0 167.6 902.8 171.8 897.3 177.4 C 892.1 179.6 891.6 186.0 887.3 189.1 C 881.4 193.4 876.3 198.5 870.6 203.0 C 873.8 205.1 878.0 207.4 881.7 205.5 C 885.3 203.7 889.2 202.4 892.9 200.9 C 896.4 199.6 898.8 196.3 902.5 195.6 C 903.4 196.4 904.3 197.4 904.9 198.5 C 902.3 201.0 900.3 203.8 899.1 207.2 C 900.3 207.5 901.6 207.9 902.8 208.3 C 905.6 205.5 908.9 209.0 912.0 208.8 C 917.9 207.2 922.9 203.6 927.3 199.4 C 932.2 197.7 938.5 198.7 942.2 194.3 C 951.3 187.9 956.7 175.4 968.2 173.1 C 971.5 171.9 974.8 172.7 977.9 173.8 C 975.5 175.5 972.6 176.4 969.7 176.9 C 968.5 181.2 963.6 182.6 962.2 186.8 C 960.7 190.4 959.7 194.3 958.9 198.1 C 961.8 195.5 964.7 192.8 967.5 190.2 C 967.7 190.7 968.2 191.7 968.4 192.1 C 971.8 192.6 975.8 192.0 978.8 194.2 C 982.3 197.1 984.3 201.5 987.5 204.7 C 991.0 205.5 994.5 204.4 997.7 203.3 C 997.5 204.0 997.3 204.8 997.2 205.6 C 999.6 205.7 1002.1 206.3 1004.6 206.0 C 1009.1 203.7 1012.4 199.3 1017.3 197.5 C 1022.7 195.1 1028.8 196.3 1034.3 194.7 C 1038.0 193.0 1041.2 190.7 1045.0 189.4 C 1044.8 193.1 1044.7 197.0 1044.4 200.7 C 1052.6 202.6 1060.0 198.2 1067.6 196.0 C 1067.8 198.7 1068.1 204.2 1068.3 206.9 C 1069.7 210.3 1072.2 213.1 1074.2 216.2 C 1068.2 217.4 1061.5 213.6 1055.9 217.1 C 1054.3 218.2 1052.5 219.0 1050.7 217.8 C 1049.3 217.8 1047.9 217.8 1046.5 217.8 C 1046.5 217.4 1046.5 216.6 1046.5 216.2 C 1045.2 216.5 1043.9 216.7 1042.6 216.9 C 1042.5 216.4 1042.5 215.5 1042.5 215.1 C 1040.3 215.4 1038.2 215.7 1036.2 216.0 C 1034.9 217.4 1033.7 218.8 1032.4 220.2 C 1026.7 220.4 1021.3 222.0 1015.6 222.6 C 1015.4 225.0 1016.4 227.9 1014.7 229.9 C 1012.5 230.8 1010.5 229.4 1008.6 228.5 C 1005.8 229.6 1003.1 230.7 1000.3 231.9 C 999.5 230.5 998.6 229.1 997.7 227.7 C 995.1 238.3 990.1 247.9 985.4 257.6 C 980.6 263.2 978.2 270.2 977.1 277.3 C 984.9 271.7 988.5 262.5 994.7 255.4 C 996.9 252.2 998.7 248.6 1001.9 246.2 C 1001.6 250.7 1000.4 255.2 998.2 259.1 C 994.4 267.1 991.5 275.7 990.3 284.6 C 991.1 285.9 991.2 287.2 991.9 288.7 C 987.1 289.7 987.0 295.0 988.1 299.0 C 989.1 306.1 985.7 312.5 985.1 319.4 C 985.7 325.8 987.8 332.0 987.6 338.4 C 987.9 338.5 988.5 338.5 988.7 338.6 C 988.6 339.5 988.4 340.5 988.2 341.5 C 988.6 341.5 989.5 341.6 989.9 341.7 C 990.8 347.7 987.0 355.4 991.6 360.4 C 995.4 365.0 996.7 370.8 998.7 376.3 C 1002.8 376.7 1007.3 378.4 1011.3 376.7 C 1015.9 374.3 1019.7 370.9 1023.3 367.3 C 1023.1 362.6 1024.7 358.2 1027.2 354.3 C 1030.6 348.9 1029.4 342.2 1029.3 336.1 C 1028.6 330.9 1028.5 325.2 1025.4 320.7 C 1022.1 315.6 1020.6 309.7 1018.3 304.2 C 1020.6 298.5 1020.3 292.5 1019.2 286.7 C 1020.2 285.1 1021.2 283.5 1022.0 281.8 C 1022.1 281.7 1022.2 281.5 1022.3 281.4 C 1023.6 276.7 1024.0 271.4 1021.4 267.1 C 1023.9 266.0 1026.0 263.9 1026.0 260.9 C 1026.0 256.8 1030.0 255.3 1033.3 254.1 C 1034.3 251.6 1035.2 249.1 1035.9 246.5 C 1036.8 246.8 1037.7 247.0 1038.6 247.3 C 1037.3 251.9 1036.6 256.6 1036.8 261.4 C 1039.4 259.2 1043.8 257.6 1041.8 253.0 C 1042.5 249.6 1040.8 245.5 1042.9 242.4 C 1045.4 239.4 1049.7 239.6 1053.3 239.2 C 1050.2 237.5 1045.1 235.8 1046.2 231.3 C 1048.7 228.6 1051.3 225.3 1055.1 224.7 C 1057.6 224.9 1059.7 226.6 1061.7 228.0 C 1064.0 227.8 1066.2 227.5 1068.6 227.3 C 1073.6 233.6 1081.7 235.4 1089.3 236.4 C 1092.5 239.1 1094.4 243.2 1096.3 246.9 C 1095.7 246.8 1094.6 246.6 1094.0 246.6 C 1093.0 245.7 1091.8 245.1 1090.6 244.5 C 1090.4 245.9 1090.4 247.4 1090.3 248.8 C 1098.4 252.7 1098.3 262.7 1096.4 270.3 C 1093.4 274.7 1091.3 279.7 1089.4 284.8 C 1087.7 284.7 1086.0 284.7 1084.4 284.6 C 1084.2 289.1 1084.3 293.7 1086.6 297.7 C 1088.5 297.5 1090.4 297.7 1092.1 297.0 C 1097.0 292.9 1096.8 284.7 1103.0 282.0 C 1106.1 280.6 1109.7 277.0 1113.0 279.9 C 1116.3 283.6 1118.2 288.6 1118.8 293.5 C 1119.0 293.5 1119.6 293.5 1119.8 293.6 C 1119.6 294.9 1119.4 296.2 1119.3 297.5 C 1119.7 297.5 1120.5 297.5 1120.9 297.6 C 1120.7 298.9 1120.5 300.2 1120.3 301.5 C 1120.6 301.5 1121.3 301.5 1121.7 301.6 C 1121.7 302.7 1121.7 303.8 1121.8 304.9 C 1126.4 312.1 1127.0 320.7 1127.1 329.0 C 1125.8 329.9 1124.6 331.0 1123.3 331.7 C 1122.0 330.4 1121.1 328.9 1120.0 327.5 C 1118.7 331.9 1117.4 336.2 1116.5 340.7 C 1115.2 340.6 1113.9 340.6 1112.6 340.6 C 1112.5 344.0 1112.5 347.3 1112.5 350.7 C 1107.5 353.3 1107.1 359.2 1107.0 364.1 C 1112.5 365.2 1118.0 366.4 1123.4 367.7 C 1127.1 368.6 1130.0 371.7 1133.8 371.9 C 1138.2 370.4 1142.3 368.4 1146.7 366.8 C 1155.1 364.0 1160.3 356.1 1167.5 351.3 C 1175.8 344.4 1186.7 341.2 1194.3 333.3 C 1202.0 326.1 1211.9 320.1 1216.1 310.0 C 1217.4 309.7 1218.7 309.5 1220.0 309.3 C 1218.9 305.9 1217.9 301.5 1213.6 300.9 C 1212.7 297.5 1211.7 294.0 1210.4 290.7 C 1217.9 288.4 1225.0 284.6 1232.8 283.7 C 1238.9 282.8 1245.1 283.7 1250.9 285.3 C 1256.7 279.4 1267.8 283.0 1271.6 274.6 C 1274.5 271.7 1278.1 269.7 1280.9 266.8 C 1281.4 263.3 1279.7 260.0 1279.0 256.6 C 1279.6 256.5 1280.9 256.2 1281.6 256.1 C 1279.3 253.0 1276.1 250.7 1272.4 249.7 C 1275.3 241.7 1282.1 236.3 1286.7 229.4 C 1291.5 221.8 1295.7 212.4 1304.8 209.4 C 1314.5 206.4 1324.9 206.1 1334.5 202.6 C 1347.1 197.6 1360.4 194.6 1373.7 192.0 C 1377.0 191.1 1380.9 191.4 1383.9 189.7 C 1386.1 185.8 1386.7 181.3 1387.8 177.1 C 1389.4 177.9 1390.9 178.9 1392.4 179.8 C 1392.8 178.3 1393.1 176.7 1393.6 175.2 C 1395.1 176.0 1396.7 176.8 1398.3 177.6 C 1399.1 173.3 1400.4 169.0 1401.1 164.5 C 1402.1 160.0 1407.0 157.0 1407.2 152.3 C 1404.5 146.2 1402.6 139.1 1405.8 132.9 C 1408.5 128.0 1405.2 122.3 1407.5 117.3 C 1409.5 112.8 1411.5 108.4 1412.8 103.6 C 1412.9 103.6 1413.1 103.5 1413.3 103.4 C 1414.2 98.4 1416.5 93.9 1418.3 89.2 C 1422.8 90.9 1423.9 96.6 1428.8 97.8 C 1430.9 93.9 1434.3 90.6 1438.5 88.9 C 1438.6 88.1 1438.7 87.4 1438.8 86.7 C 1444.2 88.5 1449.4 91.2 1454.6 93.6 C 1454.5 94.6 1454.4 95.5 1454.3 96.5 C 1454.7 96.5 1455.4 96.5 1455.8 96.5 C 1455.6 97.5 1455.4 98.5 1455.2 99.5 C 1455.7 99.5 1456.5 99.5 1456.9 99.6 C 1456.7 100.9 1456.4 102.2 1456.2 103.5 C 1456.6 103.5 1457.4 103.5 1457.8 103.5 C 1457.6 104.5 1457.4 105.5 1457.2 106.5 C 1457.6 106.5 1458.4 106.5 1458.8 106.5 C 1458.6 107.5 1458.4 108.5 1458.2 109.5 C 1458.6 109.5 1459.4 109.5 1459.8 109.5 C 1459.6 110.5 1459.4 111.5 1459.2 112.5 C 1459.7 112.5 1460.5 112.5 1460.9 112.6 C 1460.7 113.9 1460.4 115.2 1460.2 116.5 C 1460.6 116.5 1461.4 116.5 1461.8 116.5 C 1461.6 117.5 1461.4 118.5 1461.2 119.5 C 1461.6 119.5 1462.4 119.5 1462.8 119.5 C 1462.6 120.5 1462.4 121.5 1462.3 122.5 C 1462.5 122.5 1463.1 122.6 1463.3 122.6 C 1464.7 126.8 1465.7 131.0 1466.9 135.2 C 1467.2 136.7 1467.5 138.3 1467.7 139.8 C 1471.2 140.3 1474.7 140.8 1478.3 141.2 C 1480.0 147.2 1480.6 154.6 1487.1 157.4 C 1486.6 155.6 1486.0 153.8 1485.5 152.0 C 1490.9 154.1 1496.2 158.2 1497.7 164.1 C 1497.6 168.9 1493.7 172.5 1489.6 174.4 C 1483.1 177.5 1480.0 184.2 1474.8 188.8 C 1474.6 187.4 1474.5 186.1 1474.4 184.7 C 1469.5 183.1 1467.3 188.3 1464.0 190.6 C 1463.9 192.0 1463.9 193.4 1463.9 194.8 C 1462.0 194.6 1460.2 194.5 1458.4 194.3 C 1458.4 194.8 1458.4 195.8 1458.4 196.3 C 1457.7 193.1 1455.6 190.8 1452.5 189.8 C 1455.2 194.7 1454.9 200.2 1453.2 205.5 C 1453.8 205.6 1455.0 205.8 1455.6 205.9 C 1451.7 210.5 1446.5 213.8 1442.1 218.0 C 1440.6 218.9 1439.2 220.0 1437.6 220.8 C 1435.6 222.4 1433.7 220.0 1431.9 219.3 C 1430.4 221.8 1427.8 224.3 1429.0 227.4 C 1429.7 229.0 1429.0 230.5 1427.9 231.8 C 1426.6 239.6 1424.6 247.3 1423.1 255.0 C 1421.9 259.0 1424.1 262.2 1425.9 265.3 C 1425.4 269.6 1420.8 273.7 1423.9 278.1 C 1425.4 281.3 1429.4 278.9 1431.8 280.2 C 1435.3 284.6 1437.9 289.5 1440.5 294.5 C 1443.0 294.4 1445.6 294.4 1448.1 294.4 C 1450.3 292.6 1452.4 290.8 1454.7 289.0 C 1455.4 290.8 1456.2 292.5 1457.0 294.3 C 1452.1 295.0 1447.6 297.2 1442.9 298.6 C 1441.6 300.5 1440.5 302.5 1439.2 304.3 C 1438.6 301.8 1437.3 299.5 1435.2 297.8 C 1434.8 298.9 1434.5 300.1 1434.1 301.3 C 1433.1 301.3 1432.2 301.3 1431.3 301.4 C 1431.6 302.9 1431.9 304.4 1432.3 305.9 C 1428.8 308.1 1425.2 310.3 1421.0 310.7 C 1420.3 315.6 1415.0 316.2 1411.7 318.8 C 1406.4 322.8 1399.4 322.9 1393.4 325.3 C 1390.1 326.6 1386.7 327.1 1383.2 327.7 C 1380.3 328.1 1379.4 331.3 1377.9 333.4 C 1374.0 335.6 1370.7 338.7 1366.8 340.9 C 1366.2 343.7 1365.6 346.4 1365.0 349.1 C 1367.5 346.7 1369.6 343.8 1372.5 341.8 C 1375.8 341.6 1379.4 343.0 1382.5 341.2 C 1388.1 337.8 1396.2 337.4 1398.2 329.9 C 1400.7 330.2 1403.1 330.5 1405.5 330.9 C 1402.5 338.5 1394.9 341.3 1389.3 346.4 C 1385.3 349.6 1380.6 352.0 1375.9 354.1 C 1369.1 356.1 1360.5 356.9 1356.5 363.8 C 1358.8 363.5 1361.1 363.3 1363.4 363.0 C 1365.4 373.9 1367.2 385.6 1362.9 396.2 C 1360.3 403.0 1355.2 408.6 1354.0 416.0 C 1353.7 419.3 1351.4 421.5 1348.8 423.1 C 1348.6 420.2 1348.6 417.4 1348.6 414.6 C 1344.2 413.5 1339.3 412.9 1335.8 409.8 C 1333.1 407.2 1330.7 404.4 1327.7 402.2 C 1327.5 403.7 1327.4 405.2 1327.3 406.8 C 1329.0 409.2 1331.1 411.4 1334.1 412.0 C 1336.4 416.1 1337.9 420.7 1340.1 424.9 C 1342.1 426.5 1344.7 427.4 1347.1 428.5 C 1348.2 433.1 1351.1 437.2 1350.9 442.1 C 1351.8 451.3 1346.7 459.2 1342.2 466.6 C 1341.3 475.0 1341.8 484.2 1337.7 491.9 C 1335.1 492.0 1333.6 489.3 1332.5 487.4 C 1331.5 479.2 1335.1 471.7 1336.5 463.9 C 1335.1 458.4 1330.8 454.2 1326.7 450.5 C 1326.6 451.2 1326.4 452.4 1326.3 453.1 C 1324.0 453.0 1321.6 453.0 1319.2 452.9 C 1317.7 449.2 1316.2 445.4 1315.0 441.6 C 1316.6 441.1 1318.1 440.5 1319.6 440.0 C 1317.5 438.6 1315.2 437.6 1313.2 436.2 C 1313.8 433.3 1316.1 430.9 1316.4 427.9 C 1315.3 425.5 1313.4 423.6 1311.7 421.6 C 1313.0 418.9 1313.5 415.9 1313.9 412.9 C 1313.4 413.0 1312.5 413.2 1312.0 413.3 C 1310.4 416.2 1308.1 418.7 1306.9 421.9 C 1307.6 424.4 1309.4 426.8 1308.7 429.6 C 1305.5 438.5 1313.2 445.8 1315.3 453.8 C 1316.1 456.1 1314.4 458.0 1313.3 459.7 C 1313.0 459.1 1312.6 457.9 1312.4 457.3 C 1310.8 457.5 1309.2 457.8 1307.6 458.0 C 1307.5 457.5 1307.5 456.4 1307.4 455.9 C 1304.3 456.7 1301.2 457.3 1298.2 458.3 C 1303.6 459.6 1309.5 458.1 1314.3 461.5 C 1317.2 463.1 1320.5 464.4 1322.7 467.1 C 1322.9 470.0 1322.1 472.9 1321.2 475.6 C 1322.0 475.5 1322.8 475.4 1323.7 475.3 C 1324.4 479.2 1325.2 483.1 1326.1 486.9 C 1324.2 485.7 1322.3 484.4 1320.2 483.3 C 1322.5 488.4 1325.4 493.2 1329.1 497.5 C 1327.7 498.3 1324.8 498.4 1323.8 499.0 C 1323.0 494.9 1319.4 493.1 1315.9 491.7 C 1317.8 497.1 1321.9 501.2 1327.0 503.5 C 1327.1 502.5 1327.3 501.5 1327.4 500.5 C 1330.4 499.6 1333.4 498.5 1336.5 497.7 C 1337.3 500.9 1338.3 504.1 1340.4 506.8 C 1344.7 512.7 1347.3 519.5 1350.8 525.9 C 1350.1 526.6 1349.4 527.2 1348.8 527.9 C 1346.1 526.5 1343.2 525.3 1340.3 524.2 C 1335.9 529.6 1326.9 529.4 1324.5 536.5 C 1327.7 536.6 1330.3 534.7 1332.8 532.8 C 1332.5 533.8 1332.1 534.8 1331.9 535.9 C 1336.2 531.7 1342.5 532.1 1347.9 530.7 C 1349.2 531.8 1350.1 533.3 1351.1 534.7 C 1354.1 536.8 1353.6 540.6 1353.9 543.9 C 1351.9 544.5 1349.8 544.9 1348.1 546.1 C 1347.1 548.9 1347.1 552.1 1345.8 554.8 C 1344.0 555.7 1341.9 555.8 1340.0 556.1 C 1338.0 556.3 1335.9 556.5 1333.9 556.7 C 1334.0 557.1 1334.1 558.0 1334.1 558.4 C 1334.6 558.4 1335.6 558.5 1336.1 558.6 C 1335.0 561.8 1334.0 564.9 1333.1 568.1 C 1336.9 569.0 1340.7 570.3 1344.4 571.4 C 1342.5 575.9 1340.9 581.4 1335.7 582.7 C 1335.7 582.0 1335.6 580.7 1335.5 580.1 C 1330.4 582.2 1324.5 582.5 1320.1 586.1 C 1316.3 591.3 1310.1 594.3 1306.6 599.8 C 1303.9 604.1 1304.2 609.5 1302.2 614.0 C 1299.9 617.5 1295.0 616.7 1291.6 618.3 C 1286.8 620.9 1281.4 622.6 1277.6 626.6 C 1273.8 631.6 1272.1 637.8 1272.0 644.0 C 1272.8 650.3 1267.5 656.0 1261.4 656.3 C 1260.4 661.1 1256.4 664.2 1253.3 667.6 C 1248.9 673.0 1242.9 676.8 1237.7 681.3 C 1238.2 681.4 1239.4 681.5 1240.0 681.5 C 1240.0 682.1 1240.0 683.2 1239.9 683.7 C 1235.8 686.8 1230.9 689.9 1229.8 695.3 C 1228.6 700.5 1224.5 704.5 1223.9 709.9 C 1222.6 720.2 1216.8 729.8 1218.1 740.5 C 1218.8 752.9 1224.7 764.1 1228.7 775.6 C 1230.9 782.2 1235.5 787.6 1238.8 793.6 C 1245.4 802.9 1254.4 810.4 1260.4 820.3 C 1259.4 820.4 1258.4 820.6 1257.4 820.7 C 1258.1 825.8 1258.6 831.1 1261.7 835.4 C 1267.6 843.6 1272.9 852.3 1277.5 861.3 C 1289.5 876.0 1286.1 896.0 1287.8 913.6 C 1286.6 913.1 1285.5 912.7 1284.3 912.3 C 1283.9 916.6 1280.4 922.3 1284.5 925.7 C 1282.8 928.8 1280.5 931.5 1277.7 933.6 C 1274.2 935.9 1269.8 935.5 1265.8 935.9 C 1265.6 936.7 1265.3 937.6 1265.1 938.4 C 1263.9 938.4 1262.8 938.4 1261.6 938.4 C 1261.5 939.0 1261.2 940.1 1261.0 940.6 C 1256.0 937.4 1258.0 930.8 1255.6 926.1 C 1252.4 922.2 1249.4 917.9 1245.6 914.4 C 1242.5 914.7 1239.7 915.7 1236.8 916.5 C 1234.0 912.8 1232.6 908.4 1231.4 904.0 C 1230.4 900.1 1226.5 898.2 1223.9 895.5 C 1220.5 891.6 1220.6 886.0 1220.2 881.2 C 1218.9 880.7 1217.6 880.3 1216.4 879.8 C 1216.5 882.8 1216.6 885.8 1216.7 888.8 C 1213.1 886.8 1210.3 883.6 1208.5 879.9 C 1205.6 874.0 1200.1 869.9 1196.5 864.5 C 1200.4 859.9 1203.7 854.6 1204.8 848.5 C 1201.2 848.2 1197.6 847.6 1194.0 847.2 C 1194.4 848.2 1194.8 849.3 1195.2 850.4 C 1196.4 850.3 1197.7 850.2 1198.9 850.2 C 1198.3 852.6 1197.8 855.1 1197.3 857.5 C 1190.6 853.5 1191.8 845.1 1190.3 838.5 C 1190.6 838.5 1191.1 838.5 1191.4 838.5 C 1192.9 830.3 1193.7 821.1 1189.3 813.7 C 1188.0 811.4 1187.1 808.9 1186.3 806.3 C 1185.4 806.4 1184.4 806.6 1183.5 806.7 C 1183.5 806.3 1183.5 805.6 1183.5 805.3 C 1182.2 805.4 1180.9 805.6 1179.6 805.8 C 1179.5 805.6 1179.5 805.1 1179.5 804.9 C 1173.3 805.1 1171.2 798.2 1165.9 796.3 C 1164.9 791.1 1159.9 788.9 1156.6 785.5 C 1151.2 779.6 1142.3 777.7 1134.8 779.6 C 1134.1 781.8 1133.9 784.7 1131.2 785.3 C 1126.8 786.8 1123.5 790.2 1121.0 794.1 C 1116.2 795.1 1111.3 796.2 1106.4 796.6 C 1106.4 797.0 1106.4 797.8 1106.4 798.2 C 1105.1 795.4 1104.8 791.9 1102.2 789.9 C 1094.2 785.0 1085.9 780.2 1076.6 778.3 C 1076.6 778.1 1076.5 777.7 1076.5 777.5 C 1075.4 777.4 1074.3 777.3 1073.2 777.2 C 1064.6 775.9 1055.9 778.7 1047.5 780.1 C 1038.8 782.3 1030.7 787.1 1021.5 786.9 C 1023.6 785.9 1025.7 785.1 1027.9 784.2 C 1025.7 778.9 1023.4 773.5 1019.1 769.5 C 1018.5 773.9 1017.4 778.7 1014.1 781.9 C 1008.8 783.7 1003.1 785.5 997.5 784.2 C 994.8 783.8 991.9 782.1 989.2 783.6 C 986.0 785.4 982.3 784.6 978.9 784.9 C 977.0 787.3 976.2 790.6 973.5 792.3 C 969.8 794.8 964.6 797.0 965.4 802.7 C 967.4 802.9 969.5 803.1 971.6 803.2 C 972.6 800.9 973.7 798.6 974.8 796.4 C 976.1 796.8 977.5 797.1 978.8 797.5 C 979.0 798.8 979.3 800.1 979.5 801.4 C 980.4 801.4 981.4 801.5 982.4 801.5 C 981.1 803.3 980.1 805.7 978.1 806.8 C 976.2 808.4 972.4 808.6 971.4 811.2 C 969.4 814.5 973.2 817.8 976.0 818.9 C 982.1 820.2 989.2 820.9 993.4 826.2 C 992.4 830.8 987.4 833.1 983.1 831.0 C 980.2 824.8 972.5 825.2 967.0 823.0 C 967.2 821.1 967.3 819.2 967.5 817.3 C 962.1 817.4 959.5 823.9 960.4 828.5 C 959.2 829.5 958.0 830.6 956.9 831.6 C 956.7 831.7 956.2 831.7 956.0 831.7 C 955.4 830.1 954.8 828.4 953.8 827.0 C 950.2 826.9 946.7 828.1 943.2 828.6 C 943.0 830.5 942.8 832.4 942.5 834.3 C 934.4 834.8 927.4 830.0 920.2 826.8 C 921.7 825.2 923.1 823.6 924.6 822.0 C 921.2 820.8 917.8 819.7 914.5 818.6 C 913.8 816.3 913.2 814.0 912.6 811.7 C 909.7 810.4 906.5 810.1 904.2 812.6 C 902.1 806.9 895.4 810.6 893.9 814.9 C 896.0 815.5 898.1 816.1 900.2 816.8 C 898.4 818.1 896.6 819.4 894.8 820.5 C 894.7 820.0 894.7 818.9 894.7 818.4 C 889.2 820.1 883.1 820.4 878.2 817.1 C 873.6 815.5 869.0 813.8 864.4 812.0 C 858.6 810.8 852.8 812.4 847.0 813.0 C 845.3 813.6 843.6 814.3 842.0 815.2 C 837.0 816.7 831.7 817.6 827.0 819.9 C 823.0 821.8 818.1 822.7 815.7 826.8 C 814.0 829.5 811.3 831.0 808.8 832.5 C 801.3 836.9 796.1 844.5 788.2 848.3 C 779.0 853.8 768.2 856.8 760.5 864.5 C 756.9 867.5 752.5 869.2 749.0 872.3 C 748.4 872.4 747.9 872.5 747.3 872.6 C 747.3 873.4 747.4 874.2 747.4 875.0 C 740.2 881.6 736.3 890.7 731.8 899.2 C 729.3 903.5 728.9 908.6 728.2 913.5 C 728.2 917.8 729.5 922.1 729.7 926.4 C 729.9 926.5 730.4 926.6 730.7 926.6 C 730.7 927.6 730.7 928.7 730.8 929.8 C 733.0 933.7 733.2 938.3 733.9 942.7 C 737.1 945.8 734.0 952.2 729.4 950.5 C 722.7 948.4 716.9 943.7 709.6 942.9 C 709.5 943.5 709.4 944.8 709.3 945.4 C 703.7 943.6 699.1 939.7 693.5 937.6 C 687.9 936.2 683.4 932.1 677.7 931.0 C 673.4 930.3 673.4 924.8 672.3 921.7 C 671.0 916.1 668.0 911.2 664.8 906.5 C 665.3 906.5 666.4 906.5 666.9 906.5 C 666.7 904.2 666.6 901.9 666.6 899.7 C 665.2 899.2 663.9 898.7 662.6 898.1 C 663.1 898.0 664.0 897.6 664.4 897.5 C 664.5 894.5 667.0 890.3 663.8 888.2 C 660.6 885.8 656.2 884.8 653.9 881.2 C 651.3 877.2 649.6 872.5 647.1 868.4 C 645.8 865.9 642.0 866.1 640.8 863.6 C 638.0 853.2 633.7 843.3 629.1 833.6 C 623.5 825.2 615.9 818.4 609.7 810.4 C 602.7 808.4 595.4 806.9 588.1 806.5 C 585.0 806.1 582.5 803.9 580.0 802.1 C 579.4 803.0 578.8 804.0 578.2 805.0 C 573.1 805.6 567.1 807.5 565.2 812.8 C 562.4 820.7 557.7 828.0 551.6 833.7 C 544.2 830.6 537.8 825.7 531.7 820.8 C 522.8 817.0 514.6 810.4 510.6 801.5 C 508.1 795.4 509.0 788.5 507.7 782.1 C 506.0 776.3 503.2 770.8 499.1 766.2 C 496.9 763.0 492.4 762.8 489.4 760.4 C 482.8 755.0 478.6 747.4 473.5 740.6 C 472.3 738.6 469.8 738.3 467.9 737.7 C 465.6 733.8 464.0 729.4 461.3 725.8 C 460.0 724.0 457.4 724.8 455.5 724.5 C 455.5 724.2 455.5 723.6 455.5 723.3 C 452.8 723.5 450.2 723.7 447.5 723.9 C 447.5 723.5 447.5 722.7 447.5 722.2 C 444.8 722.5 442.2 722.7 439.5 722.9 C 439.5 722.5 439.5 721.7 439.5 721.2 C 437.2 721.5 434.8 721.6 432.6 721.9 C 432.5 721.5 432.5 720.6 432.5 720.2 C 430.2 720.4 427.8 720.6 425.6 720.9 C 425.5 720.5 425.5 719.7 425.4 719.4 C 423.7 719.2 421.9 719.0 420.1 718.8 C 417.6 718.7 415.0 718.7 412.5 718.7 C 412.5 718.2 412.5 717.3 412.5 716.8 C 411.4 717.3 410.4 717.8 409.4 718.3 C 408.6 723.6 407.8 728.9 406.9 734.2 C 405.2 733.7 403.6 733.2 402.0 732.7 C 394.4 732.7 386.8 731.4 379.1 730.8 C 372.2 730.1 365.7 726.7 358.5 727.7 C 358.5 727.3 358.5 726.6 358.5 726.2 C 355.8 726.5 353.2 726.7 350.5 726.9 C 350.5 726.5 350.5 725.7 350.5 725.2 C 347.8 725.5 345.2 725.7 342.5 725.9 C 342.5 725.5 342.5 724.7 342.4 724.2 C 340.5 724.4 338.7 724.6 336.8 724.7 C 336.7 724.4 336.5 723.6 336.4 723.3 C 334.8 723.5 333.2 723.7 331.5 724.0 C 331.5 723.5 331.5 722.7 331.5 722.3 C 329.9 722.5 328.2 722.7 326.6 723.0 C 326.5 722.6 326.5 721.9 326.5 721.5 C 319.9 723.0 315.4 718.2 310.1 715.6 C 299.0 708.6 287.4 702.5 276.2 695.6 C 272.7 693.3 268.9 691.4 265.2 689.6 C 251.6 682.0 238.9 672.8 225.2 665.3 C 222.1 663.0 218.2 661.9 215.5 659.1 C 216.8 657.5 218.3 656.0 219.5 654.2 C 217.2 651.8 213.6 652.4 210.6 652.5 C 210.5 652.2 210.5 651.6 210.4 651.2 C 208.2 651.5 205.9 651.6 203.6 651.9 C 203.5 651.5 203.5 650.7 203.4 650.4 C 185.2 651.3 167.2 647.4 149.3 644.8 C 147.6 633.6 150.3 620.1 141.8 611.2 C 137.2 605.9 134.2 598.0 126.6 596.5 C 125.0 595.8 123.3 595.3 121.8 594.3 C 122.1 591.8 123.0 589.4 123.7 587.1 C 120.6 583.0 115.5 583.0 111.1 581.7 C 102.2 579.5 103.6 567.8 96.0 564.2 C 90.8 562.6 85.9 560.2 81.4 557.3 C 77.9 556.0 74.0 556.4 70.4 555.5 C 68.2 554.2 67.0 551.8 65.5 549.7 C 66.1 549.7 67.2 549.6 67.8 549.5 C 67.6 548.2 67.3 546.9 67.1 545.6 C 67.4 545.5 68.1 545.5 68.4 545.5 C 69.1 539.5 71.4 533.3 69.5 527.3 C 67.6 520.6 64.3 514.3 60.2 508.7 C 56.5 503.9 57.0 497.5 55.2 492.0 C 53.9 485.6 46.6 482.6 46.6 475.6 C 47.0 475.6 47.9 475.5 48.4 475.5 C 48.6 473.3 47.7 470.4 50.2 469.3 C 52.0 467.3 56.5 466.2 55.4 462.8 C 55.0 456.9 47.4 456.8 45.2 451.8 C 38.9 443.3 42.4 433.0 45.1 424.0 C 46.3 424.0 47.5 424.0 48.8 424.0 C 48.7 428.7 47.6 434.4 52.9 436.8 C 54.2 430.3 52.2 423.9 49.5 418.0 C 51.5 417.8 53.6 417.5 55.6 417.3 C 54.1 415.7 52.5 414.1 50.8 412.6 C 48.9 415.9 48.1 419.6 47.9 423.4 C 44.2 421.5 40.7 419.0 38.4 415.5 C 34.7 410.7 38.4 404.3 36.5 398.9 C 33.9 392.2 30.4 385.7 25.9 380.0 C 22.9 376.4 24.7 371.1 24.9 367.0 C 25.3 362.0 27.8 357.7 30.3 353.5 C 34.4 340.9 21.3 332.5 21.6 320.6 C 21.5 316.4 25.0 313.9 27.9 311.6 C 32.2 306.4 36.7 301.0 38.5 294.4 C 42.2 286.0 40.8 276.5 43.9 268.0 C 43.7 264.4 41.6 261.1 40.6 257.7 C 41.2 257.6 42.2 257.5 42.8 257.5 C 42.5 255.9 42.3 254.2 42.0 252.6 C 42.4 252.6 43.2 252.5 43.6 252.5 C 42.9 244.9 42.6 236.1 48.1 230.1 C 58.7 215.8 67.2 200.0 73.1 183.2 C 77.0 173.4 79.8 163.1 85.5 154.2 C 85.4 153.3 85.4 152.4 85.3 151.5 C 85.7 151.5 86.4 151.5 86.8 151.5 C 86.6 150.5 86.4 149.5 86.3 148.5 C 86.5 148.5 87.1 148.5 87.4 148.5 C 88.3 141.4 91.1 134.9 93.8 128.4 C 96.2 128.0 98.5 127.6 100.9 127.3 C 101.3 126.0 101.6 124.6 102.0 123.3 C 100.2 123.8 98.3 124.5 96.4 124.6 C 95.0 123.3 93.7 121.9 92.4 120.5 C 93.3 118.5 94.1 116.5 94.7 114.4 C 96.0 114.8 97.3 115.2 98.6 115.6 C 99.2 114.0 99.9 112.3 100.7 110.7 C 99.0 108.6 97.0 106.6 96.0 104.1 C 96.6 101.0 99.8 99.9 102.6 99.6 C 96.0 92.9 97.3 82.6 97.6 73.9 C 99.0 68.1 96.0 62.8 95.5 57.1 C 95.7 52.8 97.1 48.7 98.2 44.6 C 105.9 49.1 110.5 57.7 118.9 61.1 C 125.9 64.3 133.6 65.2 141.0 66.8 C 143.0 63.8 145.3 61.0 147.7 58.4 C 146.7 62.1 145.6 65.8 145.2 69.7 C 148.3 72.1 150.5 75.4 153.0 78.4 C 151.9 73.3 149.9 68.2 150.6 63.0 C 150.8 58.1 153.3 53.4 152.0 48.5 C 150.8 45.1 148.0 41.8 149.6 38.0 Z" id="path4" style="stroke:none"/>
  <path fill="#000000" stroke="#000000" stroke-width="0.09375" opacity="1.00" d=" M 148.2 62.5 C 149.7 62.4 149.6 64.9 148.2 64.9 C 146.7 65.0 146.8 62.6 148.2 62.5 Z" id="path6"/>
</svg>